# xmcd CD database file
#
# Track frame offsets:
#	150
#	13065
#	25082
#	39922
#	54062
#	65970
#	81447
#	95330
#	115647
#	134687
#	152770
#	165520
#	179257
#	202820
#	214220
#
# Disc length: 3040 seconds
#
# Revision: 2
# Processed by: cddbd v1.5.2PL0 Copyright (c) Steve Scherf et al.
# Submitted via: CDex 1.51
#
DISCID=c20bde0f
DTITLE=Various Artist - Blues Story #9 - Chicago Blues
DYEAR=1998
DGENRE=Blues
TTITLE0=Elmore James - Dust My Broom
TTITLE1=Little Walter - Mellow Down Easy
TTITLE2=Willie Dixon - Pain In My Heart
TTITLE3=Jammes Cotton - Born In Chicago (Live)
TTITLE4=Charlie Musselwhite - Leaving Blues
TTITLE5=Sonny Boy Williamson - Nine Below Zero
TTITLE6=Paul Butterfield Blues Band - The Night Ain't Long Enough
TTITLE7=Mike Bloomfield - Stagger Lee
TTITLE8=Larry Garner -  Don't Start Crying
TTITLE9=Joanna Connor - Nothin' But The Blues
TTITLE10=Muddy Waters - I Just Want To Make Love To You
TTITLE11=Hound Dog Taylor - 55th Street Boogie
TTITLE12=Koko Taylor - I Cried Like A Baby
TTITLE13=Etta James - I'd Rather Go Blind
TTITLE14=Howlin' Wolf - Smokestack Lightnin'
EXTD=YEAR: 1998
EXTT0=
EXTT1=
EXTT2=
EXTT3=
EXTT4=
EXTT5=
EXTT6=
EXTT7=
EXTT8=
EXTT9=
EXTT10=
EXTT11=
EXTT12=
EXTT13=
EXTT14=
PLAYORDER=
